<?xml version="1.0" encoding="UTF-8"?>
<svg version="1.1" xmlns="http://www.w3.org/2000/svg" width="173" height="187">
<path d="M0 0 C15.4580769 12.00147915 24.95338581 28.12822868 27.46484375 47.5234375 C29.19665463 66.37877173 24.42801782 84.59146133 12.8515625 99.74609375 C0.52208697 114.11053126 -16.04518155 123.38853074 -35.02539062 125.11816406 C-54.72927957 126.4015945 -73.36421979 120.57090645 -88.40234375 107.50390625 C-102.45689923 93.59729346 -110.46380683 76.04672878 -111.05078125 56.17578125 C-111.10834856 37.00143755 -102.94486085 19.72854088 -89.98828125 5.765625 C-80.42625746 -3.3722055 -68.74953074 -8.96232518 -56 -12.06640625 C-54.83597656 -12.35257813 -54.83597656 -12.35257813 -53.6484375 -12.64453125 C-34.54999994 -15.68676024 -15.82248424 -10.89856011 0 0 Z " fill="#FAFCFC" transform="translate(128,40.06640625)"/>
<path d="M0 0 C6.746424 3.73873033 11.33298598 8.41928066 13.75 15.8125 C15.10152665 24.27660627 12.34855521 30.41494503 8.125 37.5625 C3.03834637 42.38143502 -2.78564566 45.09207879 -9.8125 45.4375 C-16.41552891 45.09242646 -21.33132458 42.61843688 -26.0703125 38.0625 C-31.80440525 31.63588397 -32.7110019 26.93931342 -32.55859375 18.296875 C-31.98439654 11.81353438 -29.66119838 7.87261269 -24.9375 3.5 C-16.98087871 -2.69974525 -9.158388 -4.31383209 0 0 Z " fill="#F8F8F8" transform="translate(99.25,57.1875)"/>
<path d="M0 0 C6.746424 3.73873033 11.33298598 8.41928066 13.75 15.8125 C15.10152665 24.27660627 12.34855521 30.41494503 8.125 37.5625 C3.03834637 42.38143502 -2.78564566 45.09207879 -9.8125 45.4375 C-16.41552891 45.09242646 -21.33132458 42.61843688 -26.0703125 38.0625 C-31.80440525 31.63588397 -32.7110019 26.93931342 -32.55859375 18.296875 C-31.98439654 11.81353438 -29.66119838 7.87261269 -24.9375 3.5 C-16.98087871 -2.69974525 -9.158388 -4.31383209 0 0 Z M-26.90625 8.5703125 C-30.52027255 13.36893133 -30.94652101 18.01216624 -30.6640625 23.9140625 C-29.67383888 30.84562781 -26.50058016 35.34874788 -21.0390625 39.625 C-16.33721008 42.74588021 -11.78999674 43.36649967 -6.25 42.8125 C0.47699296 41.1227307 4.81070517 38.67223955 8.6328125 32.8203125 C11.4920409 27.68169923 12.61091062 22.67331461 11.75 16.8125 C9.71740298 10.08434658 5.26768579 5.93284978 -0.25 1.8125 C-9.87722629 -3.00111315 -20.18314036 1.4349367 -26.90625 8.5703125 Z " fill="#5B5B5B" transform="translate(99.25,57.1875)"/>
<path d="M0 0 C0.66 0 1.32 0 2 0 C2 0.99 2 1.98 2 3 C2.99 3 3.98 3 5 3 C5 2.01 5 1.02 5 0 C5.66 0 6.32 0 7 0 C8.78305524 2.63892176 9.99059621 4.97178863 11 8 C10.34 8 9.68 8 9 8 C9 7.34 9 6.68 9 6 C8.34 6 7.68 6 7 6 C7.11342101 11.27275514 7.11342101 11.27275514 9.5625 15.5625 C11 17 11 17 11.4375 20.375 C10.92465121 24.62431852 10.26420707 26.23797863 7 29 C3.5625 29.6875 3.5625 29.6875 0 29 C-2.28039802 27.17568158 -3.37073622 25.51795311 -5 23 C-5 22.01 -5 21.02 -5 20 C-4.34 20 -3.68 20 -3 20 C-2.67 21.32 -2.34 22.64 -2 24 C-1.34 24 -0.68 24 0 24 C0 20.7 0 17.4 0 14 C-1.32 13.34 -2.64 12.68 -4 12 C-4 10.02 -4 8.04 -4 6 C-2.68 5.34 -1.36 4.68 0 4 C0 2.68 0 1.36 0 0 Z " fill="#3E3E3E" transform="translate(86,64)"/>
<path d="M0 0 C1.65 0 3.3 0 5 0 C5.66 0.99 6.32 1.98 7 3 C7.66 2.01 8.32 1.02 9 0 C10.65 0 12.3 0 14 0 C14 3.3 14 6.6 14 10 C12.00045254 10.04254356 9.99958364 10.04080783 8 10 C7.67 9.67 7.34 9.34 7 9 C6.34 9 5.68 9 5 9 C4.67 9 4.34 9 4 9 C2.68 9.33 1.36 9.66 0 10 C0 6.7 0 3.4 0 0 Z " fill="#515151" transform="translate(43,117)"/>
<path d="M0 0 C6.59803641 3.65649696 11.49900846 8.46023541 13.75 15.8125 C13.3515625 18.05859375 13.3515625 18.05859375 12.75 19.8125 C12.75 18.8225 12.75 17.8325 12.75 16.8125 C12.09 16.8125 11.43 16.8125 10.75 16.8125 C10.234375 15.61625 9.71875 14.42 9.1875 13.1875 C6.65987769 8.08695749 2.85255649 4.36377825 -2.25 1.8125 C-5.4525115 1.78679177 -8.63935448 1.84074645 -11.83984375 1.93945312 C-13.64347804 1.9693379 -15.44810879 1.89722195 -17.25 1.8125 C-17.91 1.1525 -18.57 0.4925 -19.25 -0.1875 C-12.69813306 -3.56910874 -6.52879033 -3.0941212 0 0 Z " fill="#595959" transform="translate(99.25,57.1875)"/>
<path d="M0 0 C3.63 0 7.26 0 11 0 C11 0.66 11 1.32 11 2 C10.01 2.495 10.01 2.495 9 3 C9.66 5.31 10.32 7.62 11 10 C7.37 10 3.74 10 0 10 C0 6.7 0 3.4 0 0 Z " fill="#545454" transform="translate(75,117)"/>
<path d="M0 0 C3 1 3 1 4 3 C4.37809179 7.00777293 4.34407297 9.35314281 2.4375 12.9375 C0 15 0 15 -3.75 15.3125 C-4.8225 15.209375 -5.895 15.10625 -7 15 C-7 13.68 -7 12.36 -7 11 C-4.525 11.495 -4.525 11.495 -2 12 C-2 8.37 -2 4.74 -2 1 C-1.34 0.67 -0.68 0.34 0 0 Z " fill="#494949" transform="translate(93,78)"/>
<path d="M0 0 C0.66 0 1.32 0 2 0 C2.33 0.99 2.66 1.98 3 3 C3.66 3.33 4.32 3.66 5 4 C5 6.97 5 9.94 5 13 C2.1875 13.25 2.1875 13.25 -1 13 C-2.9375 11.25 -2.9375 11.25 -4 9 C-3.875 6.8125 -3.875 6.8125 -3 5 C-2.01 4.67 -1.02 4.34 0 4 C0 2.68 0 1.36 0 0 Z " fill="#6D6D6D" transform="translate(86,64)"/>
<path d="M0 0 C-15.17991704 6.23375904 -29.63363687 9.21665942 -46 6 C-46 5.67 -46 5.34 -46 5 C-37.09 5 -28.18 5 -19 5 C-18.67 4.01 -18.34 3.02 -18 2 C-15.36 2.33 -12.72 2.66 -10 3 C-10 2.34 -10 1.68 -10 1 C-3.375 -1.125 -3.375 -1.125 0 0 Z " fill="#CFFEFE" transform="translate(118,158)"/>
<path d="M0 0 C2.97 0 5.94 0 9 0 C9.82810826 3.31243305 10.09278428 5.65976579 10 9 C8.68 9 7.36 9 6 9 C6 8.01 6 7.02 6 6 C5.34 6 4.68 6 4 6 C4 6.99 4 7.98 4 9 C2.68 9 1.36 9 0 9 C0 6.03 0 3.06 0 0 Z " fill="#5C5C5C" transform="translate(117,118)"/>
<path d="M0 0 C6.625 -0.25 6.625 -0.25 10 2 C9.67 3.32 9.34 4.64 9 6 C7.68 6.33 6.36 6.66 5 7 C5.33 7.99 5.66 8.98 6 10 C4.02 10 2.04 10 0 10 C0 6.7 0 3.4 0 0 Z " fill="#424242" transform="translate(103,117)"/>
<path d="M0 0 C1.98 0 3.96 0 6 0 C6.99 3.3 7.98 6.6 9 10 C7.35 10 5.7 10 4 10 C3.34 9.34 2.68 8.68 2 8 C2 8.66 2 9.32 2 10 C0.68 10 -0.64 10 -2 10 C-1.855625 9.44570312 -1.71125 8.89140625 -1.5625 8.3203125 C-1.376875 7.59585938 -1.19125 6.87140625 -1 6.125 C-0.814375 5.40570313 -0.62875 4.68640625 -0.4375 3.9453125 C0.07313965 2.00710683 0.07313965 2.00710683 0 0 Z " fill="#525252" transform="translate(62,117)"/>
<path d="M0 0 C2.97 0 5.94 0 9 0 C9 0.99 9 1.98 9 3 C8.01 3.495 8.01 3.495 7 4 C7 4.66 7 5.32 7 6 C6.34 6 5.68 6 5 6 C5 6.66 5 7.32 5 8 C6.32 7.67 7.64 7.34 9 7 C9 7.99 9 8.98 9 10 C6.03 10 3.06 10 0 10 C0 6.7 0 3.4 0 0 Z " fill="#5D5D5D" transform="translate(90,117)"/>
<path d="M0 0 C0.33 0 0.66 0 1 0 C1.26599698 4.16728605 1.06824085 7.13925168 -0.46875 11.03125 C-2.36960675 16.51343107 -2.55405513 21.80149414 -2.6875 27.5625 C-2.72166016 28.57119141 -2.75582031 29.57988281 -2.79101562 30.61914062 C-2.87263281 33.07931568 -2.94205676 35.53917309 -3 38 C-3.33 38 -3.66 38 -4 38 C-5.43739889 25.13268222 -5.36654105 12.0688587 0 0 Z " fill="#DEFEFE" transform="translate(22,70)"/>
<path d="M0 0 C0.8971875 0.309375 0.8971875 0.309375 1.8125 0.625 C0.90757813 1.24375 0.90757813 1.24375 -0.015625 1.875 C-5.64369028 5.94173104 -8.58596307 9.17771283 -11.1875 15.625 C-11.5175 15.625 -11.8475 15.625 -12.1875 15.625 C-11.92767526 9.25929392 -9.79526634 5.96913792 -5.1875 1.625 C-2.1875 -0.375 -2.1875 -0.375 0 0 Z " fill="#545454" transform="translate(80.1875,58.375)"/>
<path d="M0 0 C0.99 0.33 1.98 0.66 3 1 C3 1.66 3 2.32 3 3 C3.66 3 4.32 3 5 3 C5.25 5.3125 5.25 5.3125 5 8 C3 9.8125 3 9.8125 1 11 C-0.20272819 8.59454362 -0.10071472 7.05003047 -0.0625 4.375 C-0.05347656 3.55773437 -0.04445313 2.74046875 -0.03515625 1.8984375 C-0.02355469 1.27195312 -0.01195313 0.64546875 0 0 Z " fill="#949494" transform="translate(92,80)"/>
<path d="M0 0 C1.65 0 3.3 0 5 0 C5 3.3 5 6.6 5 10 C3.35 10 1.7 10 0 10 C0 6.7 0 3.4 0 0 Z " fill="#494949" transform="translate(131,117)"/>
<path d="M0 0 C0.97839844 0.52400391 0.97839844 0.52400391 1.9765625 1.05859375 C6.63695125 3.48502034 10.67136947 5.57931864 16 6 C16 6.66 16 7.32 16 8 C9.0886636 7.52877252 3.27795839 4.79363994 -3 2 C-2.01 1.34 -1.02 0.68 0 0 Z " fill="#D1FEFE" transform="translate(56,155)"/>
<path d="M0 0 C2.31 0 4.62 0 7 0 C7 0.33 7 0.66 7 1 C5.35 1 3.7 1 2 1 C2 3.64 2 6.28 2 9 C2.66 9 3.32 9 4 9 C4 7.02 4 5.04 4 3 C4.66 3 5.32 3 6 3 C6.66 4.32 7.32 5.64 8 7 C7.01 7 6.02 7 5 7 C5.33 7.99 5.66 8.98 6 10 C4.02 10 2.04 10 0 10 C0 6.7 0 3.4 0 0 Z " fill="#727272" transform="translate(103,117)"/>
<path d="M0 0 C0.99 0 1.98 0 3 0 C3 3.63 3 7.26 3 11 C2.01 11 1.02 11 0 11 C0 7.37 0 3.74 0 0 Z " fill="#DCDCDC" transform="translate(88,79)"/>
<path d="M0 0 C2.64 0 5.28 0 8 0 C7.34 0.66 6.68 1.32 6 2 C5.01 1.67 4.02 1.34 3 1 C3.33 3.64 3.66 6.28 4 9 C2.68 9 1.36 9 0 9 C0 6.03 0 3.06 0 0 Z " fill="#3F3F3F" transform="translate(117,118)"/>
<path d="M0 0 C2.625 -0.1875 2.625 -0.1875 5 0 C4.67 2.97 4.34 5.94 4 9 C3.01 8.67 2.02 8.34 1 8 C1 6.68 1 5.36 1 4 C0.01 3.67 -0.98 3.34 -2 3 C-1.34 2.01 -0.68 1.02 0 0 Z " fill="#616161" transform="translate(52,117)"/>
<path d="M0 0 C0.99 0.33 1.98 0.66 3 1 C3.33 2.65 3.66 4.3 4 6 C3.01 6 2.02 6 1 6 C1 6.66 1 7.32 1 8 C-0.32 8 -1.64 8 -3 8 C-1.125 2.25 -1.125 2.25 0 0 Z " fill="#676767" transform="translate(63,119)"/>
<path d="M0 0 C2.68125418 2.38246339 4.11423459 4.8545504 5.6875 8.0625 C6.12449219 8.94035156 6.56148437 9.81820312 7.01171875 10.72265625 C8 13 8 13 8 15 C7.34 15 6.68 15 6 15 C6 13.68 6 12.36 6 11 C5.34 11 4.68 11 4 11 C0 4.5 0 4.5 0 0 Z " fill="#D0FEFE" transform="translate(143,57)"/>
<path d="M0 0 C0.66 0.33 1.32 0.66 2 1 C1.34 2.65 0.68 4.3 0 6 C-1.32 5.67 -2.64 5.34 -4 5 C-4 5.66 -4 6.32 -4 7 C-5.875 9.125 -5.875 9.125 -8 11 C-8.66 11 -9.32 11 -10 11 C-8.55218207 7.55571735 -6.72305391 5.63869038 -3.875 3.25 C-3.15054688 2.63640625 -2.42609375 2.0228125 -1.6796875 1.390625 C-0.84824219 0.70226563 -0.84824219 0.70226563 0 0 Z " fill="#D3FEFE" transform="translate(45,40)"/>
<path d="M0 0 C1.65 0 3.3 0 5 0 C5.33 1.32 5.66 2.64 6 4 C4.35 5.32 2.7 6.64 1 8 C0.67 5.36 0.34 2.72 0 0 Z " fill="#5D5D5D" transform="translate(75,117)"/>
<path d="M0 0 C0.33 0 0.66 0 1 0 C1 3.3 1 6.6 1 10 C0.34 10 -0.32 10 -1 10 C-1.33 10.66 -1.66 11.32 -2 12 C-4 10.1875 -4 10.1875 -6 8 C-6 7.01 -6 6.02 -6 5 C-5.34 5 -4.68 5 -4 5 C-3.67 6.32 -3.34 7.64 -3 9 C-2.01 9 -1.02 9 0 9 C0 6.03 0 3.06 0 0 Z " fill="#666666" transform="translate(87,79)"/>
<path d="M0 0 C0.99 0 1.98 0 3 0 C3 2.97 3 5.94 3 9 C2.01 9 1.02 9 0 9 C0 6.03 0 3.06 0 0 Z " fill="#D9D9D9" transform="translate(88,68)"/>
<path d="M0 0 C-0.33 0.99 -0.66 1.98 -1 3 C-2.79008467 3.22151549 -4.58218162 3.42682213 -6.375 3.625 C-7.37273437 3.74101563 -8.37046875 3.85703125 -9.3984375 3.9765625 C-10.25695312 3.98429687 -11.11546875 3.99203125 -12 4 C-12.66 3.34 -13.32 2.68 -14 2 C-9.35150485 -0.3992233 -5.08913926 -0.19957409 0 0 Z " fill="#878787" transform="translate(94,55)"/>
<path d="M0 0 C1.32 0.33 2.64 0.66 4 1 C0.7 3.31 -2.6 5.62 -6 8 C-6.66 7.67 -7.32 7.34 -8 7 C-7.34 6.01 -6.68 5.02 -6 4 C-4.68 4 -3.36 4 -2 4 C-2 3.34 -2 2.68 -2 2 C-1.34 1.34 -0.68 0.68 0 0 Z " fill="#D4FFFE" transform="translate(126,149)"/>
<path d="M0 0 C4 5 4 5 5 8 C4.34 8 3.68 8 3 8 C3 7.34 3 6.68 3 6 C2.34 6 1.68 6 1 6 C1 8.64 1 11.28 1 14 C0.67 14 0.34 14 0 14 C0 9.38 0 4.76 0 0 Z " fill="#666666" transform="translate(92,64)"/>
<path d="M0 0 C1.32 0.33 2.64 0.66 4 1 C4 3.64 4 6.28 4 9 C2.68 8.67 1.36 8.34 0 8 C0 5.36 0 2.72 0 0 Z " fill="#464646" transform="translate(43,118)"/>
<path d="M0 0 C0 3.08401374 -0.34209098 4.03663956 -1.8125 6.625 C-2.14894531 7.23601563 -2.48539063 7.84703125 -2.83203125 8.4765625 C-4 10 -4 10 -7 11 C-5.5140084 6.40693504 -3.14985318 3.56430755 0 0 Z " fill="#DBFEFE" transform="translate(34,51)"/>
<path d="M0 0 C1.65 0 3.3 0 5 0 C5.66 1.65 6.32 3.3 7 5 C6.01 5.66 5.02 6.32 4 7 C3.896875 6.21625 3.79375 5.4325 3.6875 4.625 C3.22404978 1.66954819 3.22404978 1.66954819 0 0 Z " fill="#626262" transform="translate(43,117)"/>
</svg>
